<svg xmlns="http://www.w3.org/2000/svg" version="1.1" xmlns:xlink="http://www.w3.org/1999/xlink" xmlns:svgjs="http://svgjs.dev/svgjs" width="1500" height="1518" viewBox="0 0 1500 1518"><g transform="matrix(1,0,0,1,-1.7407346938775845,-2.4483870967742405)"><svg viewBox="0 0 245 248" data-background-color="#fafafa" preserveAspectRatio="xMidYMid meet" height="1518" width="1500" xmlns="http://www.w3.org/2000/svg" xmlns:xlink="http://www.w3.org/1999/xlink"><g id="tight-bounds" transform="matrix(1,0,0,1,0.2843200000000081,0.4000000000000057)"><svg viewBox="0 0 244.43135999999998 247.2" height="247.2" width="244.43135999999998"><g><svg></svg></g><g><svg viewBox="0 0 244.43135999999998 247.2" height="247.2" width="244.43135999999998"><g transform="matrix(1,0,0,1,0,48.39412763158357)"><svg viewBox="0 0 244.43135999999998 150.41174473683284" height="150.41174473683284" width="244.43135999999998"><g><svg viewBox="0 0 244.43135999999998 150.41174473683284" height="150.41174473683284" width="244.43135999999998"><g><svg viewBox="0 0 244.43135999999998 57.45125226954177" height="57.45125226954177" width="244.43135999999998"><g id="textblocktransform"><svg viewBox="0 0 244.43135999999998 57.45125226954177" height="57.45125226954177" width="244.43135999999998" id="textblock"><g><svg viewBox="0 0 244.43135999999998 57.45125226954177" height="57.45125226954177" width="244.43135999999998"><g transform="matrix(1,0,0,1,0,0)"><svg width="244.43135999999998" viewBox="1.9 -43.2 186.04 43.6" height="57.45125226954177" data-palette-color="#130912"><g class="wordmark-text-0" data-fill-palette-color="primary" id="text-0"><path d="M1.9 0L1.9-42.95 13.75-42.95Q18.35-42.95 20.65-40.4 22.95-37.85 23-32.85L23-32.85 23.1-12.75Q23.15-6.4 20.9-3.2 18.65 0 13.45 0L13.45 0 1.9 0ZM10.55-7.6L12.05-7.6Q14.4-7.6 14.4-9.9L14.4-9.9 14.4-32.05Q14.4-33.5 14.18-34.23 13.95-34.95 13.35-35.2 12.75-35.45 11.5-35.45L11.5-35.45 10.55-35.45 10.55-7.6ZM36.65 0.4Q31 0.4 28.55-2.7 26.1-5.8 26.1-11.95L26.1-11.95 26.1-26.65Q26.1-31.7 29-34.35 31.9-37 37.1-37L37.1-37Q47.65-37 47.65-26.65L47.65-26.65 47.65-24Q47.65-20 47.55-17.5L47.55-17.5 34.85-17.5 34.85-10.4Q34.85-8.5 35.25-7.43 35.65-6.35 36.95-6.35L36.95-6.35Q37.95-6.35 38.37-6.95 38.8-7.55 38.87-8.33 38.95-9.1 38.95-10.6L38.95-10.6 38.95-14.15 47.65-14.15 47.65-12.05Q47.65-5.65 45.17-2.63 42.7 0.4 36.65 0.4L36.65 0.4ZM34.8-21.85L38.95-21.85 38.95-26.55Q38.95-30.5 37-30.5L37-30.5Q34.8-30.5 34.8-26.55L34.8-26.55 34.8-21.85ZM65.59 0L55.45 0 49.59-36.6 58.34-36.6 60.15-18.1 60.45-12.15 60.8-18.15 62.8-36.6 71.55-36.6 65.59 0Z" fill="#130912" data-fill-palette-color="primary"></path><path d="M97.45 0L88.85 0 88.85-34.7 83.75-34.7 83.75-42.95 102.55-42.95 102.55-34.7 97.45-34.7 97.45 0ZM115.45 0.4Q104.5 0.4 104.5-10.95L104.5-10.95 104.5-25.65Q104.5-30.85 107.42-33.93 110.35-37 115.45-37L115.45-37Q120.55-37 123.47-33.93 126.39-30.85 126.39-25.65L126.39-25.65 126.39-10.95Q126.39 0.4 115.45 0.4L115.45 0.4ZM115.45-6.35Q116.5-6.35 117-7.1 117.5-7.85 117.5-9.15L117.5-9.15 117.5-27.05Q117.5-30.25 115.45-30.25L115.45-30.25Q113.39-30.25 113.39-27.05L113.39-27.05 113.39-9.15Q113.39-7.85 113.89-7.1 114.39-6.35 115.45-6.35L115.45-6.35ZM140.29 0.4Q129.34 0.4 129.34-10.95L129.34-10.95 129.34-25.65Q129.34-30.85 132.27-33.93 135.19-37 140.29-37L140.29-37Q145.39-37 148.32-33.93 151.24-30.85 151.24-25.65L151.24-25.65 151.24-10.95Q151.24 0.4 140.29 0.4L140.29 0.4ZM140.29-6.35Q141.34-6.35 141.84-7.1 142.34-7.85 142.34-9.15L142.34-9.15 142.34-27.05Q142.34-30.25 140.29-30.25L140.29-30.25Q138.24-30.25 138.24-27.05L138.24-27.05 138.24-9.15Q138.24-7.85 138.74-7.1 139.24-6.35 140.29-6.35L140.29-6.35ZM163.39 0L154.49 0 154.49-43.2 163.39-43.2 163.39 0ZM176.94 0.4Q166.09 0.4 166.09-10.6L166.09-10.6 166.14-13.5 174.89-13.5 174.94-9.2Q174.94-7.9 175.44-7.23 175.94-6.55 177.09-6.55L177.09-6.55Q178.84-6.55 178.84-9.4L178.84-9.4Q178.84-11.5 178.01-12.7 177.19-13.9 175.39-15.25L175.39-15.25 170.74-18.85Q168.34-20.7 167.29-22.68 166.24-24.65 166.24-28.25L166.24-28.25Q166.24-31.05 167.71-33.02 169.19-35 171.64-36 174.09-37 177.09-37L177.09-37Q187.74-37 187.74-26.4L187.74-26.4 187.74-25.7 178.69-25.7 178.69-27.1Q178.69-28.4 178.26-29.33 177.84-30.25 176.84-30.25L176.84-30.25Q175.94-30.25 175.46-29.73 174.99-29.2 174.99-28.3L174.99-28.3Q174.99-26.3 176.54-25.2L176.54-25.2 181.94-21.25Q184.84-19.1 186.39-16.57 187.94-14.05 187.94-10.2L187.94-10.2Q187.94-5.1 185.04-2.35 182.14 0.4 176.94 0.4L176.94 0.4Z" fill="#e77917" data-fill-palette-color="accent"></path></g></svg></g></svg></g></svg></g></svg></g><g transform="matrix(1,0,0,1,59.07898761086832,71.01411410032611)"><svg viewBox="0 0 126.27338477826335 79.39763063650673" height="79.39763063650673" width="126.27338477826335"><g><svg xmlns="http://www.w3.org/2000/svg" xmlns:xlink="http://www.w3.org/1999/xlink" version="1.1" x="8" y="0" viewBox="-1.3257198875334683e-7 14.999999867216914 99.99900066321078 72.00000013278309" enable-background="new 0 0 100 100" xml:space="preserve" height="79.39763063650673" width="110.27338477826335" class="icon-icon-0" data-fill-palette-color="accent" id="icon-0"><g fill="#e77917" data-fill-palette-color="accent"><polygon fill="#e77917" points="33,67.685 45,72.534 45,69.429 38.065,66.551 45,63.583 45,60.501 33,65.35  " data-fill-palette-color="accent"></polygon><polygon fill="#e77917" points="45.892,73.713 48.452,74.55 55.455,56.988 52.895,56.104  " data-fill-palette-color="accent"></polygon><polygon fill="#e77917" points="57,63.583 63.934,66.551 57,69.429 57,72.534 69,67.685 69,65.35 57,60.501  " data-fill-palette-color="accent"></polygon><path fill="#e77917" d="M19.766 35H17.273L16.616 39H14.848L15.504 35H12.988L12.331 39H10V41H12.038L11.698 44H10V46H11.38L10.724 50H13.217L13.874 46H15.664L15.007 50H17.5L18.18 46H20V44H18.475L18.792 41H21V39H19.131zM15.981 44H14.213L14.508 41H16.299z" data-fill-palette-color="accent"></path><path fill="#e77917" d="M96.223 15H3.777A3.777 3.777 0 0 0 0 18.777V83.222A3.777 3.777 0 0 0 3.777 87H96.222A3.777 3.777 0 0 0 99.999 83.223V18.777A3.775 3.775 0 0 0 96.223 15M23.048 19.544A2.48 2.48 0 1 1 23.046 24.504 2.48 2.48 0 0 1 23.048 19.544M15.494 19.544A2.48 2.48 0 1 1 15.494 24.502 2.48 2.48 0 0 1 15.494 19.544M7.94 19.544A2.48 2.48 0 1 1 7.938 24.504 2.48 2.48 0 0 1 7.94 19.544M94 76.059A3.94 3.94 0 0 1 90.058 80H7.942A3.94 3.94 0 0 1 4 76.059V32.941A3.94 3.94 0 0 1 7.942 29H90.057A3.94 3.94 0 0 1 94 32.941z" data-fill-palette-color="accent"></path><path fill="#e77917" d="M75.367 36.812C74.879 37.341 75 38.073 75 38.972V42.363C75 42.641 74.596 42.872 74.516 43.057 74.436 43.243 74.043 43.384 73.917 43.484A1.15 1.15 0 0 1 73.483 43.692 4 4 0 0 1 73 43.75V45.932S73.342 45.952 73.499 45.992C73.658 46.032 73.871 46.104 73.998 46.21 74.123 46.316 74.461 46.465 74.54 46.657 74.618 46.848 75 47.096 75 47.4V50.711C75 51.61 74.879 52.001 75.367 52.529 75.857 53.058 76.151 53 76.984 53H80V51H78.623C78.24 51 78.136 51.156 78.024 50.906 77.911 50.654 78 50.664 78 50.375V47.142C78 46.705 77.76 46.346 77.629 46.061S77.279 45.549 77.088 45.376C76.897 45.205 76.76 45.079 76.548 45S76 44.875 76 44.861V44.822C76 44.808 76.256 44.756 76.465 44.663 76.679 44.57 76.879 44.438 77.07 44.266 77.262 44.095 77.571 43.873 77.702 43.601 77.834 43.331 78 43.004 78 42.621V39.309C78 39.019 77.911 38.688 78.024 38.437S78.24 38 78.623 38H80V36H76.984C76.151 36 75.857 36.283 75.367 36.812" data-fill-palette-color="accent"></path><path fill="#e77917" d="M89.083 43.484C88.957 43.384 88.564 43.243 88.484 43.057 88.404 42.872 88 42.641 88 42.363V38.972C88 38.073 88.121 37.341 87.633 36.811 87.143 36.283 86.849 36 86.016 36H83V38H84.377C84.76 38 84.864 38.186 84.976 38.437 85.089 38.688 85 39.019 85 39.309V42.621C85 43.005 85.166 43.331 85.298 43.602S85.737 44.095 85.93 44.267C86.121 44.439 86.322 44.571 86.535 44.664 86.744 44.756 87 44.809 87 44.822V44.861C87 44.875 86.664 44.921 86.452 45S86.103 45.205 85.912 45.377 85.502 45.777 85.371 46.062 85 46.705 85 47.143V50.375C85 50.664 85.089 50.654 84.976 50.906 84.864 51.156 84.76 51 84.377 51H83V53H86.016C86.849 53 87.143 53.058 87.633 52.529 88.121 52.001 88 51.61 88 50.711V47.4C88 47.095 88.382 46.847 88.46 46.656S88.877 46.316 89.002 46.21C89.129 46.104 89.342 46.031 89.501 45.992 89.658 45.952 90 45.932 90 45.932V43.75S89.676 43.731 89.517 43.691A1.1 1.1 0 0 1 89.083 43.484" data-fill-palette-color="accent"></path></g></svg></g></svg></g><g><rect width="59.07898761086832" height="5.181013219359619" y="71.01411410032611" x="185.35237238913166" fill="#e77917" data-fill-palette-color="accent"></rect><rect width="59.07898761086832" height="5.181013219359619" y="71.01411410032611" x="0" fill="#e77917" data-fill-palette-color="accent"></rect><rect width="59.07898761086832" height="5.181013219359619" y="81.37614053904535" x="185.35237238913166" fill="#e77917" data-fill-palette-color="accent"></rect><rect width="59.07898761086832" height="5.181013219359619" y="81.37614053904535" x="0" fill="#e77917" data-fill-palette-color="accent"></rect></g></svg></g></svg></g><path d="M0 42.394L0 1 244.431 1 244.431 42.394 239.25 42.394 239.25 6.181 5.181 6.181 5.181 42.394 0 42.394M0 204.806L0 246.2 244.431 246.2 244.431 204.806 239.25 204.806 239.25 241.019 5.181 241.019 5.181 204.806 0 204.806" fill="#130912" stroke="transparent" data-fill-palette-color="tertiary"></path></svg></g><defs></defs></svg><rect width="244.43135999999998" height="247.2" fill="none" stroke="none" visibility="hidden"></rect></g></svg></g></svg>